# xmcd
#
# Track frame offsets:
#	150
#	26361
#	58181
#	83163
#	105323
#	134419
#	149072
#	183750
#	205792
#
# Disc length: 3139 seconds
#
# Revision: 1
# Processed by: cddbd v1.5.2PL0 Copyright (c) Steve Scherf et al.
# Submitted via: audiograbber 1.83.01
#
DISCID=780c4109
DTITLE=Grateful Dead - 72-07-18A Roosevelt Stadium, Jersey City NJ
DYEAR=1900
DGENRE=
TTITLE0=Black Throated Wind
TTITLE1=China Cat Sunflower
TTITLE2=I Know You Rider
TTITLE3=Jack Straw
TTITLE4=Loser
TTITLE5=BIODTL
TTITLE6=Stella Blue
TTITLE7=El Paso
TTITLE8=Casey Jones
EXTD=
EXTT0=
EXTT1=
EXTT2=
EXTT3=
EXTT4=
EXTT5=
EXTT6=
EXTT7=
EXTT8=
PLAYORDER=
